<svg version="1.1" id="Capa_1" xmlns="http://www.w3.org/2000/svg" x="0" y="0" viewBox="0 0 341 347" xml:space="preserve"><style>.st0{fill:#fff}.st1{font-family:&apos;ArialMT&apos;}.st2{font-size:36px}</style><path class="st0" d="M198.4 11.1c54.8 9.7 98.1 46.5 118.6 94.2l2.6-.1C299 56.4 254.9 18.6 198.9 8.7 117.5-5.7 39.5 43.8 16.1 120.9l2.6-.1C42 45.3 118.6-3 198.4 11.1zm117.4 210.1C290 292.6 215.7 337.4 138.4 323.8c-52.2-9.2-93.9-43.1-115.4-87.4l-2.6.1C42.1 282 84.7 316.7 138 326.2c78.8 13.9 154.5-32 180.4-105.1l-2.6.1z"/><path class="st0" d="M197 18.7c47.4 8.4 85.8 38.1 107.1 77.5l1.5-.1c-21.4-40-60.3-70.3-108.4-78.8C124.8 4.6 55 45.3 28.5 111l1.5-.1C56.4 46.1 125.4 6.1 197 18.7zm111.3 202.4c-25.2 67.1-95.5 109-168.6 96-48.9-8.7-88.3-40-109.1-81.2l-1.4.1c21 41.9 60.8 73.7 110.3 82.5 73.9 13.1 145-29.4 170.3-97.4h-1.5z"/><text transform="translate(34 178.58)" class="st0 st1 st2">BROWN NORTE</text><text transform="translate(92 135.56)" class="st0 st1 st2">CAFETAL</text><path class="st0" d="M189.3 212v34c0 4.7-4 8.5-8.8 8.5h-26.6c-4.9 0-8.9-3.8-8.9-8.5v-34h44.3m17.7-8.5h-70.8V246c0 9.4 7.9 17 17.7 17h26.6c9.8 0 17.7-7.6 17.7-17v-12.8h8.9c4.9 0 8.8-3.8 8.8-8.5V212c0-4.7-4-8.5-8.9-8.5zm-8.8 21.3V212h8.9v12.8h-8.9zm8.8 46.7h-79.7v8.5H207v-8.5z"/></svg>